# xmcd
#
# Track frame offsets: 
#        150
#        12332
#        22995
#        32990
#        42392
#        52145
#        62382
#        72157
#        83355
#        95195
#
# Disc length: 1404 seconds
#
# Revision: 2
# Processed by: cddbd v1.4PL0 Copyright (c) Steve Scherf et al.
# Submitted via: ExactAudioCopy v0.90b3
#
DISCID=7d057a0a
DTITLE=Barbara Mandrell - Super Hits
DYEAR=1900
DGENRE=Country
TTITLE0=The Midnight Oil
TTITLE1=Show Me
TTITLE2=Treat Him Right
TTITLE3=Tonight My Baby's Coming Home
TTITLE4=Do Right Woman Do Right Man
TTITLE5=This Time I Almost Made It
TTITLE6=I've Been Loving You Too Long
TTITLE7=Playin' Around With Love
TTITLE8=Give A Little, Take A Little
TTITLE9=Holdin' On (To The Love I Got)
EXTD=
EXTT0=
EXTT1=
EXTT2=
EXTT3=
EXTT4=
EXTT5=
EXTT6=
EXTT7=
EXTT8=
EXTT9=
PLAYORDER=
